.
Bad Boys 1995 HDTVrip-LQ 720p 5.1ch AVCHD h264 AAC subs 2hrs .mp4

PLEASE NOTE: the original source master is lower quality than I prefer; it's probably from Satellite during scattered storms or something.  I hesitate to release this, but it was requested so...

I sought a reasonably-sized 720p AVCHD Compliant BluRay/PS3/XBOX-ready torrent of 'Bad Boys' movie, but no luck. So, I created one, for our media center and to share.

Details, Ratings, Reviews     :  http://www.imdb.com/title/tt0112442/
Picture of Cover              : http://img62.imageshack.us/img62/7861/badboys1995cover.jpg  *
Picture of Disc               : http://img40.imageshack.us/img40/4774/badboys1995disc.jpg  *
~ RipMinion ~  Rare Torrents  :  http://j.mp/hKpx8
~ RipMinion ~  Rare Torrents  :  http://1337x.org/user_51839
Azureus/Vuze Magnet Link      :  magnet:?xt=urn:btih:3TBZX37OYXBEX6ZTAQOFVC3OZGKONXMO
*note: cover art pictures may not necessarily be precisely indicative.

| NOTICE: News is, TPB has sold out. So, I bid thee farewell...
| Soon they will begin to obey corporate take down notices.
| Thus, this Torrent has official New Home(s):
|  http://j.mp/hKpx8  or  http://1337x.org/user_51839
| Simply click and go! There's no bs to deal with.
| Please update your bookmarks/links before the inevitable.

Encoding 'inspired by secretmyth, Titan79 & newartriot' for an Optimal blend of Quality, Compression, plus I add full AVCHD Compliancy (eg. burn to DVD-R and playback on BluRay Players & PS3 in full 720p quality {see below}).

General
Complete name                 :  Bad Boys 1995 HDTVrip-LQ 720p 5.1ch AVCHD h264 AAC subs 2hrs .mp4
Format                        :  MPEG-4
Format profile                :  Base Media
Codec ID                      :  isom
File size                     :  1.03 GiB
Duration                      :  1h 58m
Overall bit rate              :  1 246 Kbps

Video
AVCHD Compliant               :  Yes, BluRay/PS3/XBOX ready; no re-encode!
Format                        :  AVC (h264)
Format/Info                   :  Advanced Video Codec
Format profile                :  High@L3.1
Format settings, CABAC        :  Yes
Format settings, ReFrames     :  3 frames
Codec ID                      :  avc1
Codec ID/Info                 :  Advanced Video Coding
Bit rate mode                 :  Variable
Bit rate                      :  1 064 Kbps (-crf 25)
Maximum bit rate              :  16.7 Mbps
Width                         :  1 280 pixels
Height                        :  720 pixels (true 720p)
Display aspect ratio          :  16/9
Frame rate mode               :  Constant
Frame rate                    :  23.976 fps
Standard                      :  NTSC
Resolution                    :  24 bits
Colorimetry                   :  4:2:0
Scan type                     :  Progressive
Bits/(Pixel*Frame)            :  0.048
Stream size                   :  904 MiB (85%)
Writing library               :  x264 core 77 r1281M 39f6499
Encoding settings             :  cabac=1 / ref=3 / deblock=1:-1:0 / analyse=0x3:0x133 / me=umh / subme=10 / psy=1 / psy_rd=1.0:0.2 / mixed_ref=1 / me_range=64 / chroma_me=1 / trellis=2 / 8x8dct=1 / cqm=0 / deadzone=21,11 / chroma_qp_offset=-3 / threads=6 / nr=0 / decimate=1 / mbaff=0 / constrained_intra=0 / bframes=3 / b_pyramid=0 / b_adapt=2 / b_bias=0 / direct=3 / wpredb=1 / keyint=240 / keyint_min=24 / scenecut=40 / rc_lookahead=60 / rc=crf / mbtree=1 / crf=25.0 / qcomp=0.60 / qpmin=10 / qpmax=51 / qpstep=4 / vbv_maxrate=13000 / vbv_bufsize=13000 / ip_ratio=1.40 / aq=2:1.00 / pulldown=0 / nal_hrd=1 

Audio Track                   :  English
Format                        :  AAC, Nero AAC Encoder v1.3.3.0
Format/Info                   :  Advanced Audio Codec
Format version                :  Version 4
Format profile                :  LC (AAC-HE{v1} extension)
Format settings, SBR          :  Yes
Format settings, PS           :  No
Codec ID                      :  40
Bit rate mode                 :  Variable
Bit rate                      :  179 Kbps (-he -q 0.25 = ~transparent)
Maximum bit rate              :  226 Kbps
Channel(s)                    :  6 channels (5.1 Surround Sound)
Channel positions             :  Front: L C R, Rear: L R, LFE
Sampling rate                 :  48.0 KHz
Resolution                    :  16 bits
Stream size                   :  152 MiB {14%}

Subtitles                     :  English
Format                        :  Timed text
Codec ID                      :  tx3g
Bit rate                      :  78 bps (vbr)
Stream size                   :  65.9 KiB (0%)

Encode process details / FAQ  :  http://ripminion.pastebay.org/61822
Subtitle Search Engine 1      :  http://www.opensubtitles.org/
Subtitle Search Engine 2      :  http://subscene.com/filmsearch.aspx
Subtitle Search Engine 3      :  http://www.subtitlesource.org/
More rare improved-cut movies :  http://fanedit.org/  then  http://fanedit.info/
~ RipMinion ~  Rare Torrents  : 
~ RipMinion ~  Rare Torrents  :  http://1337x.org/user_51839


Playback issues? Here's the easy fix  :  http://www.videolan.org/vlc/

For fast & easy Convert-to-DVD, Burn, and Play on any DVD Player from DVD-R or DVD+R_DL media, I recommend 'ConvertXtoDVD' software. Either buy or search for the Torrent.

For fast & easy Convert-to-AVCHD, Burn, and Playback on BluRay Players & PS3 in full 720p quality from a variety of disc types (DVD-R, DVD+R_DL, BD-R, BD-RE, etc.), I recommend 'multiAVCHD' freeware {link follows}.  It can auto-generate a slick customizable iTunes-style slide menu for multiple movies and burn everything to a single disc!  100% AVCHD Compliant Video, such as this, is quickly made ready (Non-compliant video is automatically re-encoded thus reducing quality, wasting lots of time, and bloating file size):

  http://www.videohelp.com/tools/multiAVCHD        (Note: the latest version broke AAC-HE 48KHz audio, so...)
  http://www.videohelp.com/tools/YAMB              (1. extract AAC audio track to .aac file)
  http://www.videohelp.com/tools/dBpowerAMP        (dbPowerAMP is free forever, only a few features expire)
  http://www.dbpoweramp.com/codec-central-m4a.htm  (2. convert .aac to .wav, 3. In multiAVCHD: replace audio track)
  http://ImgBurn.com/


Please feel free to post constructive feedback, questions, comments, etc.

I really appreciate you helping seed at any capacity you can spare.

Enjoy the show,
~ RipMinion ~

.
